<svg xmlns="http://www.w3.org/2000/svg" viewBox="0 0 30 12"><defs><style>.cls-1,.cls-2{fill:#a1a3a6;}.cls-2{fill-rule:evenodd;}</style></defs><g id="レイヤー_2" data-name="レイヤー 2"><g id="icon"><rect class="cls-1" y="3" width="2" height="6"/><polygon class="cls-2" points="5 3 8 4 8 8 5 9 5 3"/><rect class="cls-1" x="3" y="2" width="1" height="8"/><path class="cls-2" d="M10,4a2,2,0,1,0,2,2A2,2,0,0,0,10,4ZM9,5h2V7H9Z"/><path class="cls-2" d="M16,0a2,2,0,0,0-2,2v8a2,2,0,0,0,2,2h8a2,2,0,0,0,2-2V2a2,2,0,0,0-2-2Zm2,2h4a2,2,0,0,1,2,2V8a2,2,0,0,1-2,2H18a2,2,0,0,1-2-2V4A2,2,0,0,1,18,2Z"/><rect class="cls-1" x="27" y="2" width="3" height="8"/><rect class="cls-1" x="18" y="4" width="4" height="4"/></g></g></svg>