<svg xmlns="http://www.w3.org/2000/svg" viewBox="0 0 12 19.98"><defs><style>.cls-1{fill:#fff;fill-rule:evenodd;}</style></defs><g id="レイヤー_2" data-name="レイヤー 2"><g id="icon"><path class="cls-1" d="M10.57,3.89A6.3,6.3,0,0,0,6,2a6.3,6.3,0,0,0-4.57,1.9l.62.56A5.4,5.4,0,0,1,6,2.79,5.4,5.4,0,0,1,10,4.45Z"/><path class="cls-1" d="M8.9,5.42A3.57,3.57,0,0,0,6,4,3.57,3.57,0,0,0,3.1,5.42L3.73,6A2.65,2.65,0,0,1,6,4.79,2.65,2.65,0,0,1,8.27,6Z"/><path class="cls-1" d="M12,2.57A8.12,8.12,0,0,0,6,0,8.12,8.12,0,0,0,0,2.57l.62.57A7.18,7.18,0,0,1,6,.8a7.18,7.18,0,0,1,5.38,2.34Z"/><path class="cls-1" d="M0,14a18.16,18.16,0,0,0,1,4,2,2,0,0,0,2,2H9a2,2,0,0,0,2-2,18.16,18.16,0,0,0,1-4,18.16,18.16,0,0,0-1-4A2,2,0,0,0,9,8H3a2,2,0,0,0-2,2A18.16,18.16,0,0,0,0,14Zm9-2.93a2.22,2.22,0,0,1-2.17.29L5.26,10.27,5,10.43l4,2.72A11.18,11.18,0,0,0,6,15L3,12.92a2.13,2.13,0,0,1,2.15-.27l1.59,1.08L7,13.59,3,10.84A10.05,10.05,0,0,0,6,9ZM3,18H9v1H3Zm0-2H9v1H3Z"/></g></g></svg>