<svg xmlns="http://www.w3.org/2000/svg" viewBox="0 0 28.95 18"><defs><style>.cls-1{fill:#a1a3a6;fill-rule:evenodd;}</style></defs><g id="レイヤー_2" data-name="レイヤー 2"><g id="icon"><path class="cls-1" d="M14,6H11.63C9.3,8.11,9.3,11.23,8.37,13.35a21.17,21.17,0,0,0-5.11-.85A9.17,9.17,0,0,0,0,13.35c.21.76.42,2.08.67,2.8V16H11.39C12.23,13.07,13.23,8.62,14,6ZM1.12,17a4.89,4.89,0,0,0,.74,1H10.7c.1-.43.21-.57.33-1ZM13.5,0H11.64c-.47.42-.48,0-.48,1.24,0,.85.47,2.34.47,2.76H13.5Z"/><path class="cls-1" d="M29,6H26.63c-2.33,2.11-2.33,5.23-3.26,7.35a21.17,21.17,0,0,0-5.11-.85,9.17,9.17,0,0,0-3.26.85c.21.76.42,2.08.67,2.8V16H26.39C27.23,13.07,28.23,8.62,29,6ZM16.12,17a4.89,4.89,0,0,0,.74,1H25.7c.1-.43.21-.57.33-1ZM28.5,0H26.64c-.47.42-.48,0-.48,1.24,0,.85.47,2.34.47,2.76H28.5Z"/></g></g></svg>