<svg xmlns="http://www.w3.org/2000/svg" viewBox="0 0 29.84 16.95"><defs><style>.cls-1{fill:#a1a3a6;}</style></defs><g id="レイヤー_2" data-name="レイヤー 2"><g id="icon"><path class="cls-1" d="M13.36,4.62a1.58,1.58,0,0,1,.86.64,4.67,4.67,0,0,1,.28,2.08,5.16,5.16,0,0,1-.27,1.88,2,2,0,0,1-1,1,3.82,3.82,0,0,1-1.74.34,3.76,3.76,0,0,1-1.9-.4,2,2,0,0,1-.91-1,6.72,6.72,0,0,1-.22-2v-.8h2.55V8a2.45,2.45,0,0,0,.08.84.34.34,0,0,0,.35.18.38.38,0,0,0,.39-.23A4.38,4.38,0,0,0,12,7.61v-.7a2.06,2.06,0,0,0-.13-.86.69.69,0,0,0-.39-.36,4.06,4.06,0,0,0-1-.09V4.12a5.56,5.56,0,0,0,1.12-.07.54.54,0,0,0,.31-.3A2.2,2.2,0,0,0,12,3V2.45a1.56,1.56,0,0,0-.11-.71.38.38,0,0,0-.34-.17.36.36,0,0,0-.36.18,1.83,1.83,0,0,0-.1.77v.84H8.5V2.49a2.41,2.41,0,0,1,.67-2A3.52,3.52,0,0,1,11.29,0a3.31,3.31,0,0,1,2.47.71,2.83,2.83,0,0,1,.65,2,2.5,2.5,0,0,1-.23,1.23A2.08,2.08,0,0,1,13.36,4.62Z"/><path class="cls-1" d="M15.49.2h2a12,12,0,0,1,2.59.18,2,2,0,0,1,1,.58,1.78,1.78,0,0,1,.44.89,13.37,13.37,0,0,1,.09,1.95V7.37A8,8,0,0,1,21.5,9.2a1.4,1.4,0,0,1-.45.72,1.81,1.81,0,0,1-.79.37,7.25,7.25,0,0,1-1.43.1H15.49ZM18.14,2v6.7c.38,0,.62-.08.71-.23A3.33,3.33,0,0,0,19,7.17v-4a5.47,5.47,0,0,0,0-.89A.4.4,0,0,0,18.73,2,1.3,1.3,0,0,0,18.14,2Z"/><path class="cls-1" d="M25.15,6.36,24.61,8c1.93.57,3.3,1.3,3.3,2.09s-1.5,1.7-3.9,2.28L24.45,14c3.33-.93,5.39-2.33,5.39-3.91S28.32,7.29,25.15,6.36Z"/><path class="cls-1" d="M16.73,13.58c-.53,0-1.08.05-1.62.05-7.17,0-13.19-1.73-13.19-3.51C1.92,9.33,3.29,8.6,5.23,8L4.68,6.36C1.52,7.29,0,8.63,0,10.12c0,2.8,6.5,5.06,15.11,5.06.61,0,1.2,0,1.79,0l.2,1.8,4.39-3.24-5-2.24Z"/></g></g></svg>