<svg xmlns="http://www.w3.org/2000/svg" viewBox="0 0 16 20"><defs><style>.cls-1,.cls-2{fill:#a1a3a6;}.cls-1{fill-rule:evenodd;}</style></defs><g id="レイヤー_2" data-name="レイヤー 2"><g id="icon"><path class="cls-1" d="M2,3A2,2,0,0,0,0,5V18a2,2,0,0,0,2,2H14a2,2,0,0,0,2-2V5a2,2,0,0,0-2-2H13V5h1V18H2V5H3V3Z"/><rect class="cls-2" x="4" y="9" width="8" height="1"/><rect class="cls-2" x="4" y="11" width="8" height="1"/><rect class="cls-2" x="4" y="13" width="8" height="1"/><polygon class="cls-1" points="14 18 12 18 14 16 14 18"/><polygon class="cls-1" points="12 16 14 16 12 18 12 16"/><path class="cls-1" d="M4,2V6h8V2L8,0Zm7,1V5H5V3h6Z"/></g></g></svg>