<svg xmlns="http://www.w3.org/2000/svg" viewBox="0 0 20 19.91"><defs><style>.cls-1{fill:#a1a3a6;fill-rule:evenodd;}</style></defs><g id="レイヤー_2" data-name="レイヤー 2"><g id="icon"><path class="cls-1" d="M5.41,10A4.57,4.57,0,0,0,6.7,13.15l.91-1.09A3.57,3.57,0,0,0,7.45,11,3.53,3.53,0,0,0,7,10L5.45,9.4A3.52,3.52,0,0,0,5.41,10Zm2.42,4a4.51,4.51,0,0,0,2.17.55A4.65,4.65,0,0,0,12.1,14l-.68-.8A3.45,3.45,0,0,0,10,12.91a3.5,3.5,0,0,0-1.61.43Zm6.34-6a4.6,4.6,0,0,0-3.46-2.62v1.4a3.51,3.51,0,0,0,.86,1,3.63,3.63,0,0,0,1.48.64ZM9.29,5.42A4.6,4.6,0,0,0,5.83,8L7,8.45a3.63,3.63,0,0,0,1.48-.64,3.51,3.51,0,0,0,.86-1Zm3.36,8.28a4.65,4.65,0,0,0,.59-.49Zm-.26-1.5.85,1A4.59,4.59,0,0,0,14.59,10a3.52,3.52,0,0,0,0-.56l-1.5.55a3.53,3.53,0,0,0-.5,1A3.85,3.85,0,0,0,12.39,12.2ZM8.94,10A1.06,1.06,0,1,0,10,8.9,1.07,1.07,0,0,0,8.94,10ZM0,10c0,.26,0,.51,0,.76l2.09.63L.36,12.65a9.89,9.89,0,0,0,.53,1.44L3.07,14l-1.2,1.82a10.12,10.12,0,0,0,1,1.17l2-.86-.51,2.12A9.67,9.67,0,0,0,5.67,19l1.59-1.5.25,2.17A9.73,9.73,0,0,0,9,19.91L10,18l1,1.95a9.34,9.34,0,0,0,1.51-.26l.26-2.17L14.32,19a9.21,9.21,0,0,0,1.33-.77l-.51-2.12,2,.87a8.52,8.52,0,0,0,1-1.18L16.93,14l2.18.13a8.81,8.81,0,0,0,.52-1.44l-1.75-1.3L20,10.72c0-.25,0-.5,0-.76s0-.51,0-.76l-2.09-.63,1.75-1.3a8.85,8.85,0,0,0-.53-1.44L16.93,6l1.2-1.82a10.14,10.14,0,0,0-1-1.18l-2,.87.51-2.13A10.18,10.18,0,0,0,14.32.94l-1.58,1.5L12.48.27A10.59,10.59,0,0,0,11,0L10,2,9,0A11.11,11.11,0,0,0,7.51.27L7.26,2.44,5.68.94a9.78,9.78,0,0,0-1.33.77l.51,2.12L2.85,3a11.15,11.15,0,0,0-1,1.18L3.07,6,.89,5.83A11.17,11.17,0,0,0,.37,7.27l1.75,1.3L0,9.2C0,9.45,0,9.7,0,10Zm4,0a6,6,0,1,1,6,6A6,6,0,0,1,4,10Z"/></g></g></svg>