<svg xmlns="http://www.w3.org/2000/svg" viewBox="0 0 24 20"><defs><style>.cls-1{fill:#fff;fill-rule:evenodd;}</style></defs><g id="レイヤー_2" data-name="レイヤー 2"><g id="icon"><path class="cls-1" d="M12.45,11.91a1.18,1.18,0,0,0,.46-.35,1.66,1.66,0,0,0,.32-.62,3,3,0,0,0,.11-.85,3,3,0,0,0-.12-.89,2.48,2.48,0,0,0-.31-.59,1.25,1.25,0,0,0-.47-.34,1.4,1.4,0,0,0-.53-.11,1.46,1.46,0,0,0-.55.11,1,1,0,0,0-.45.32,1.69,1.69,0,0,0-.33.61,3,3,0,0,0-.11.89,2.93,2.93,0,0,0,.11.89,2,2,0,0,0,.31.6,1.19,1.19,0,0,0,.45.33,1.52,1.52,0,0,0,.57.11A1.49,1.49,0,0,0,12.45,11.91Zm6.81-2.43a1.1,1.1,0,0,0,.08-.43.68.68,0,0,0-.14-.41.85.85,0,0,0-.31-.26,1.16,1.16,0,0,0-.46-.1h-.84V10H18a3.56,3.56,0,0,0,.63,0,1,1,0,0,0,.42-.19A.64.64,0,0,0,19.26,9.48ZM3,0A3,3,0,0,0,0,3V17a3,3,0,0,0,3,3H21a3,3,0,0,0,3-3V3a3,3,0,0,0-3-3ZM8,7.19V8.31H6.14V13H4.64V8.31H2.82V7.19Zm6.13.69a3,3,0,0,1,.82,2.21,3,3,0,0,1-.8,2.22,2.91,2.91,0,0,1-2.2.81,2.92,2.92,0,0,1-2.21-.81,3,3,0,0,1-.79-2.22A3,3,0,0,1,9.7,7.88a3,3,0,0,1,2.21-.82A2.93,2.93,0,0,1,14.09,7.88Zm6.61.28a1.94,1.94,0,0,1,.19.86,2.22,2.22,0,0,1-.14.76,2,2,0,0,1-.39.63,2.36,2.36,0,0,1-1.85.7h-.92V13h-1.5V7.19h2.47a4,4,0,0,1,.92.09,2.5,2.5,0,0,1,.69.28A1.8,1.8,0,0,1,20.7,8.16Z"/></g></g></svg>