<svg xmlns="http://www.w3.org/2000/svg" viewBox="0 0 24 20"><defs><style>.cls-1{fill:#fff;fill-rule:evenodd;}</style></defs><g id="レイヤー_2" data-name="レイヤー 2"><g id="icon"><path class="cls-1" d="M20.07,5.75,20,5.8a.4.4,0,0,0-.12.29c0,.54.92,1,2.05,1H22c1.09,0,2-.44,2-1s-.92-.64-2.06-.64h-.38l-.92-3.08a3.26,3.26,0,0,0-3-2.37H6.35a3.27,3.27,0,0,0-3,2.37L2.44,5.45H2.06C.92,5.45,0,5.56,0,6.09s.87,1,2,1h.1c1.13,0,2.05-.44,2.05-1A.4.4,0,0,0,4,5.8l-.06,0a1,1,0,0,1-.26-.91l1-3A1.18,1.18,0,0,1,5.82,1H18.18c.53,0,1,0,1.14.46l1,3.38A1,1,0,0,1,20.07,5.75Zm2,1.39,0-.08h-.1c-1.13,0-2.05-.44-2.05-1A.4.4,0,0,1,20,5.8a.9.9,0,0,1-.6.2H4.59A.92.92,0,0,1,4,5.8a.4.4,0,0,1,.12.29c0,.54-.92,1-2.05,1H2l0,.08A4.93,4.93,0,0,0,0,11.22a.82.82,0,0,0,.1.42,1.18,1.18,0,0,0-.1.5l.69,3.57A1.26,1.26,0,0,0,1.92,17h.14a1.27,1.27,0,0,0-.06.39v1.22A1.38,1.38,0,0,0,3.37,20h.26A1.38,1.38,0,0,0,5,18.61V17.39A1.27,1.27,0,0,0,4.94,17H19.06a1.27,1.27,0,0,0-.06.39v1.22A1.38,1.38,0,0,0,20.37,20h.26A1.38,1.38,0,0,0,22,18.61V17.39a1.27,1.27,0,0,0-.06-.39h.14a1.26,1.26,0,0,0,1.23-1.29L24,12.14a1.18,1.18,0,0,0-.1-.5.82.82,0,0,0,.1-.42A4.93,4.93,0,0,0,22.06,7.14ZM2.52,8H3.64c.45,0,2.18,2.24,2.18,2.24A.78.78,0,0,1,5,11H1.83C1.38,11,1,10.44,1,10,1,10,2.07,8,2.52,8Zm19,0C21.93,8,23,10,23,10c0,.41-.36,1-.81,1H19c-.45,0-.81-.56-.81-1,0,0,1.73-2,2.18-2Zm-16,0h13l-.69,1H6.17Zm11.67,2-.69,1H7.54l-.69-1ZM5,13H18v2H5Z"/></g></g></svg>